<svg xmlns="http://www.w3.org/2000/svg" width="397.47" height="456.159" viewBox="0 0 397.47 456.159">
  <g id="Group_35" data-name="Group 35" transform="translate(-781.881 -191.093)">
    <path id="Path_1" data-name="Path 1" d="M1223.3,485.506v.152a.207.207,0,0,0,0,.076,7.01,7.01,0,0,1-.155,1.1c-.441,2.99-.966,5.992-1.6,8.994-4.307,20.509-13.123,40.828-24.922,59.2-.465.709-.931,1.419-1.408,2.116-.907,1.381-1.825,2.736-2.768,4.092-.656.925-1.312,1.85-1.992,2.774a194.681,194.681,0,0,1-14.96,18.2c-2.911,3.116-5.965,6.131-8.984,9.007l-1.336,1.267q-2.47,2.28-5.011,4.434c-.728.621-1.467,1.267-2.207,1.837l-1.288,1.064-.919.722c-.823.671-1.658,1.267-2.505,1.964l-.6.443c-1.992,1.508-4,2.964-6.037,4.37a146.109,146.109,0,0,1-13.469,8.234q-3.209,1.735-6.454,3.256-3.937,1.862-7.934,3.408c-.716.291-1.443.557-2.171.836-2.04.747-4.1,1.444-6.156,2.078l-1.05.329-.525.152h0l-1.265.367a153.95,153.95,0,0,1-18.659,4.13l-1.026.165-.537.089a228.491,228.491,0,0,1-23.86,2.318,282.338,282.338,0,0,1-32.748,0l-2.983-.215h-.537c-2.064-.165-4.128-.367-6.18-.6-1.193-.127-2.386-.266-3.579-.431-1.813-.228-3.579-.494-5.416-.773h-.083l-1.73-.291c-1.563-.266-3.1-.545-4.641-.874l-1.575-.3-2.386-.519-.465-.1a148.685,148.685,0,0,1-14.7-4.155l-1.1-.393q-5.225-1.849-10.26-4.117-3.734-1.71-7.337-3.636-5.154-2.774-10.045-5.967-6.836-4.446-13.242-9.577c-5.619-4.446-11.023-9.235-16.273-14.2l-1.086-1.039-1.98-1.9A339.421,339.421,0,0,1,858.2,493.2q-2.72-5.4-5.273-10.97c-.525-1.14-1.038-2.28-1.551-3.433a2.8,2.8,0,0,1-.119-.279l-.787-1.773c-2.147-4.915-4.176-9.944-6.084-15.037l-.859-2.306-1.336-3.724-.537-1.558q-2.47-7.094-4.605-14.378c-.239-.836-.489-1.672-.728-2.534q-1.133-3.952-2.159-7.955c-.632-2.458-1.193-4.953-1.8-7.474-.1-.393-.179-.785-.262-1.191-4.772-21.383-6.812-44.489-1.969-67.938.322-1.6.68-3.192,1.086-4.776.573-2.369,1.193-4.738,1.98-7.107.167-.557.346-1.115.525-1.672l.215-.608a1.488,1.488,0,0,1,.131-.431.9.9,0,0,0,.083-.253c.417-1.165.835-2.331,1.288-3.509s.931-2.344,1.42-3.509h0l.072-.165c0-.152.131-.291.191-.443.394-.912.8-1.824,1.193-2.711l.43-.912.119-.456c.227-.469.465-.95.7-1.406a114.886,114.886,0,0,1,11.548-18.609,103.037,103.037,0,0,1,7.874-9.184,86.381,86.381,0,0,1,13.827-11.756q1.193-.76,2.291-1.482a55.1,55.1,0,0,1,20.723-7.981c9.473-1.419,18.36.215,27.01,2.407l.871.228c1.456.367,2.911.76,4.355,1.153,5.046,1.355,10.129,2.762,15.259,3.965,4.772,1.127,9.544,2.09,14.471,2.762a95.951,95.951,0,0,0,14.972.887,22.463,22.463,0,0,0,2.255-.076,77.421,77.421,0,0,0,26.843-6.258,51.563,51.563,0,0,0,17.466-12.25,41.043,41.043,0,0,0,2.7-3.294h0a38.686,38.686,0,0,0,3.794-6.334c.334-.671.656-1.355.966-2.027h0c.119-.228.239-.481.358-.722h0l1.825-3.8h0c.072-.139.131-.279.2-.405.883-1.811,1.766-3.6,2.672-5.346a103,103,0,0,1,12.908-20.193h0a54.277,54.277,0,0,1,19.16-14.606c1.193-.545,2.386-1.064,3.71-1.546a51.08,51.08,0,0,1,17.275-3.281h2.064a57.159,57.159,0,0,1,17.2,3.23h0a87.321,87.321,0,0,1,23.634,13,163.42,163.42,0,0,1,29.6,28.87c.692.861,1.384,1.748,2.064,2.635a220.157,220.157,0,0,1,19.792,31c17.251,32.455,28.561,70.471,36.721,109.184l.394,1.849c.191.912.382,1.824.561,2.724.382,1.875.764,3.8,1.121,5.612.274,1.381.549,2.774.811,4.155h0c.191,1,.382,1.989.561,3,.119.621.239,1.267.346,1.887q2.938,15.545,4.331,31.353a5.6,5.6,0,0,0,.083,1.178,182.854,182.854,0,0,1-.883,38.89Z" transform="translate(-45.474 14.096)" fill="#f6c7ad" opacity="0.1"/>
    <path id="Path_2" data-name="Path 2" d="M1095.715,513.394c-1.312-.367-3.579,1.267-6.49,3.94-1.408,1.267-2.971,2.85-4.665,4.573l-.8.823-.358.355c-2.243,2.293-4.7,4.826-7.3,7.385-1.622,1.6-3.293,3.205-5.023,4.789-2.279,2.09-3.579,7.829-4.2,15.683a153.922,153.922,0,0,1-18.659,4.13l-1.026.165-.537.089c-.37-2.356-.644-3.9-.644-3.9s-10.737-9.514-7.611-21.4c1.8-6.815,19.422-19.572,34.132-29.225,1.8-1.165,3.579-2.306,5.237-3.37l1.086-.7c.68-.431,1.324-.849,1.969-1.267l4.891-3.04c3.388-2.078,5.846-3.534,6.717-4.054l.358-.215S1099.067,514.332,1095.715,513.394Z" transform="translate(-23.848 65.121)" fill="#3f3d56"/>
    <path id="Path_3" data-name="Path 3" d="M1095.715,513.394c-1.312-.367-3.579,1.267-6.49,3.94-1.408,1.267-2.971,2.85-4.665,4.573l-.8.823-.358.355c-2.243,2.293-4.7,4.826-7.3,7.385-1.622,1.6-3.293,3.205-5.023,4.789-2.279,2.09-3.579,7.829-4.2,15.683a153.922,153.922,0,0,1-18.659,4.13l-1.026.165-.537.089c-.37-2.356-.644-3.9-.644-3.9s-10.737-9.514-7.611-21.4c1.8-6.815,19.422-19.572,34.132-29.225,1.8-1.165,3.579-2.306,5.237-3.37l1.086-.7c.68-.431,1.324-.849,1.969-1.267l4.891-3.04c3.388-2.078,5.846-3.534,6.717-4.054l.358-.215S1099.067,514.332,1095.715,513.394Z" transform="translate(-23.848 65.121)" opacity="0.1"/>
    <path id="Path_4" data-name="Path 4" d="M1103.017,511.141s-2.2,2.394-5.607,6.182c-1.432,1.583-3.09,3.42-4.879,5.435l-.167.19-.931,1.026c-2.124,2.382-4.414,4.953-6.764,7.6-12.193,13.859-25.984,30.086-25.984,32.67a8.847,8.847,0,0,1-.585,2.812l-1.026.165-.537.089a228.472,228.472,0,0,1-23.86,2.318,282.286,282.286,0,0,1-32.748,0l-2.983-.215h-.537c-2.064-.165-4.128-.367-6.18-.6-1.193-.127-2.386-.266-3.579-.431,1.408-2.078,2.875-4.256,4.331-6.486,2.923-4.459,5.822-9.07,8.232-13.251.143-.241.274-.481.418-.709,1.444-2.534,2.7-4.928,3.663-6.993a19.445,19.445,0,0,0,1.944-5.853,33.448,33.448,0,0,1,2.135-7.259c5.261-14.188,19.017-43.071,26.7-59.019l.692-1.419.668-1.368c2.469-5.067,4.056-8.31,4.056-8.31l18.79-5.384,1.193-.342,4.152-1.191,1.6-.456,8.888-2.534h.107l.322-.1,9.377-2.673,3.114-.9,3.579-1,9.067,16.4,2.648,40.968Z" transform="translate(-33.727 53.111)" fill="#3f3d56"/>
    <path id="Path_5" data-name="Path 5" d="M989.265,566.09c-3.675-5.067-5.81-8.171-5.81-8.171s5.214-1.343,12.014-3.382c3.472-1.051,7.361-2.268,11.179-3.6,2.386-.849,4.772-1.736,7.051-2.635,1.193-.456,2.279-.937,3.34-1.406,4.939-2.2,8.649-4.446,9.4-6.448a4.408,4.408,0,0,0-.191-2.394,67,67,0,0,0-4.39-10.565c-.632-1.267-1.324-2.648-2.064-4.079-2.386-4.624-5.237-9.919-8.351-15.505-2.613-4.662-5.416-9.539-8.256-14.429-2.505-4.294-5.047-8.614-7.54-12.795-.072-.127-.155-.253-.227-.393-11.37-19.078-21.582-35.47-22-36.091h0l-6.7,17.089-.286.279-11.035,10.4-.262.266c-3.436,3.23-7.337,6.929-11.31,10.7-2.947,2.8-5.965,5.637-8.769,8.373-4.068,3.876-7.874,7.537-10.964,10.54a90.552,90.552,0,0,0-7.409,7.6,85.526,85.526,0,0,0-4.772,13.694c5.249,4.966,10.654,9.754,16.273,14.213,4.283,3.395,8.685,6.6,13.242,9.564q4.9,3.192,10.045,5.967,3.579,1.913,7.337,3.636,5.023,2.28,10.26,4.117l1.1.393a139.778,139.778,0,0,0,14.7,4.155l.465.1,2.386.519Z" transform="translate(-48.154 53.393)" opacity="0.1"/>
    <path id="Path_6" data-name="Path 6" d="M1081.021,445.961l-1.074,1.748c-.429.722-.99,1.647-1.67,2.749s-1.623,2.711-2.637,4.37l-.74,1.267c-1.742,2.863-3.77,6.22-5.965,9.932-.274.443-.549.887-.823,1.355s-.561.937-.847,1.406c-14.316,23.815-35.48,59.108-40.8,69.293a26.733,26.733,0,0,0-1.193,2.394c-.68,1.812-3.746,3.8-7.981,5.789-.942.456-1.957.9-2.994,1.355-2.314.975-4.844,1.926-7.421,2.85-3.758,1.343-7.635,2.534-11.167,3.661-7.468,2.293-13.409,3.8-13.409,3.8s2.052,2.952,5.571,7.867l-2.386-.519-.465-.1a148.7,148.7,0,0,1-14.7-4.155l-1.1-.393q-5.225-1.849-10.26-4.117-3.734-1.71-7.337-3.636-5.154-2.774-10.045-5.967-6.836-4.446-13.242-9.577c-5.619-4.446-11.024-9.235-16.273-14.2l-1.086-1.039a89.841,89.841,0,0,1,4.5-12.668c0-.279,3.484-3.8,8.614-8.741,3.161-3.078,6.967-6.727,10.964-10.54l8.769-8.348,10.367-9.83.262-.253,10.737-10.134.286-.279,6.717-17.1h1.36l24.421.405h3.841l7.659.127,9.115.139,10.606.177,41.577.684h1.348l7.886.127Z" transform="translate(-48.333 53.393)" fill="#3f3d56"/>
    <path id="Path_7" data-name="Path 7" d="M1065.394,315.826l-4.032,38.928s-41.3,17.469-42.3,17.114-27.535-25.678-23.168-42.437c2.183-8.4,3.2-20.053,3.651-29.567s.382-16.785.382-16.785,60.1-22.8,54.724-7.132c-1.945,5.7-1.074,12.529.847,18.9A90.619,90.619,0,0,0,1065.394,315.826Z" transform="translate(-32.038 7.039)" fill="#fbbebe"/>
    <path id="Path_8" data-name="Path 8" d="M1054.828,294.809a15.977,15.977,0,0,1-1.11,1.267c-14.528,16.37-38.518,17.987-54.879,3.7.453-9.438.382-16.785.382-16.785s60.1-22.8,54.724-7.132C1052.037,281.609,1052.908,288.437,1054.828,294.809Z" transform="translate(-31.375 7.015)" opacity="0.1"/>
    <path id="Path_9" data-name="Path 9" d="M1067.1,275.4c-.013,23.614-23.605,44.791-45.844,44.784a20.2,20.2,0,0,1-17.271-9.608c-2.067-3.27-4.757-11.04-7.3-14.442-3.814-8.949-6.666-9.682-6.666-20.734,0-23.614,14.555-42.785,36.794-42.792a38.879,38.879,0,0,1,28.567,12.455A43.9,43.9,0,0,1,1067.1,275.4Z" transform="translate(-33.747 -3.056)" fill="#fbbebe"/>
    <path id="Path_10" data-name="Path 10" d="M1018.06,345.942S1002.288,308.8,996.907,308.8,983.14,500.908,983.14,500.908l82.318,1.381,3.364-100.874-16.8-89.41S1036.874,347.31,1018.06,345.942Z" transform="translate(-34.405 17.271)" opacity="0.1"/>
    <path id="Path_11" data-name="Path 11" d="M1018.06,348.192s-15.772-37.142-21.152-37.142S983.14,503.171,983.14,503.171l93.354,1.495-7.719-101-16.8-89.4S1036.874,349.573,1018.06,348.192Z" transform="translate(-34.405 17.871)" opacity="0.1"/>
    <path id="Path_12" data-name="Path 12" d="M1018.06,347.059s-15.772-37.129-21.152-37.129S983.14,502.038,983.14,502.038l93.354,1.495-7.719-101.039-16.8-89.41S1036.874,348.44,1018.06,347.059Z" transform="translate(-34.405 17.572)" fill="#65617d"/>
    <path id="Path_13" data-name="Path 13" d="M1016.264,301.424s-2.815-4.383-6.848-2.952-7.051-2.534-11.083,1.419-20.15,9.273-23.168,7.487-13.767,6.068-16.118,10.7S948.966,335.2,948.966,335.2s-6.7,8.551-5.7,13.187-2.386,9.982-6.383,12.123S924.8,384.044,924.8,384.044s2.171,28.6-6.9,33.6-2.386,26.742-2.386,26.742l42.829-10.78,12.121-29.212s-4.7,85.571-10.415,93.413-6.371,12.845-6.371,12.845,22.154,4.991,26.855,9.26,17.132-1.064,17.132-1.064L1009.75,405.1s4.366-21.383,4.366-32.442S1016.264,301.424,1016.264,301.424Z" transform="translate(-47.916 14.411)" opacity="0.1"/>
    <path id="Path_14" data-name="Path 14" d="M1015.117,301.424s-2.827-4.383-6.86-2.952-7.051-2.534-11.083,1.419-20.138,9.273-23.168,7.487-13.767,6.068-16.118,10.7S947.819,335.2,947.819,335.2s-6.717,8.551-5.714,13.187-2.386,9.982-6.371,12.123-12.1,23.537-12.1,23.537,2.171,28.6-6.9,33.6c-2.267,1.267-3.579,4.028-4.187,7.5-2.6,13.935,8.184,26.755,21.594,26.311l23.073-10.134L969.3,404.389s-4.7,85.571-10.4,93.413-6.371,12.82-6.371,12.82,22.166,4.991,26.867,9.26,17.12-1.064,17.12-1.064L1008.6,405.073s4.366-21.383,4.366-32.442S1015.117,301.424,1015.117,301.424Z" transform="translate(-48.105 14.411)" fill="#f6c7ad"/>
    <path id="Path_15" data-name="Path 15" d="M936.42,349.61s4.032,11.768,15.116,10.7S936.42,349.61,936.42,349.61Z" transform="translate(-43.423 28.158)" opacity="0.1"/>
    <path id="Path_16" data-name="Path 16" d="M945.43,335.54s7.385,1.431,10.069,8.2S945.43,335.54,945.43,335.54Z" transform="translate(-41.684 24.405)" opacity="0.1"/>
    <path id="Path_17" data-name="Path 17" d="M963.538,326c0,1.431,4.7,26.387,0,36.737s-4.032,22.46-4.032,22.46Z" transform="translate(-38.973 21.859)" opacity="0.1"/>
    <path id="Path_18" data-name="Path 18" d="M1050.262,294.562s2.636-3.281,5.321-2.926,4.366,2.141,7.731,3.572,11.405,1.773,11.405,2.85,7.063,5.346,11.763,6.41,19.47,11.768,23.168,32.455,10.069,26.742,10.069,26.742L1084.132,382.2s27.535,124.082,30.887,133.012,3.7,61.68,3.7,61.68-21.832,10.337-27.535,13.555-3.364-30.669-15.116-50.279-25.185-48.138-25.185-48.138l-20.484-60.97s-13.123-81.29-2.016-96.276S1051.217,299.92,1050.262,294.562Z" transform="translate(-26.534 12.684)" opacity="0.1"/>
    <path id="Path_19" data-name="Path 19" d="M1119.774,576.137v.735l-1.3.621-.919.431-9.115,4.383c-5,2.419-10.522,5.067-14.006,6.942-.871.443-1.61.849-2.183,1.178a1.2,1.2,0,0,1-1.36,0c-1.789-1.267-2.6-7.7-3.865-16.088-.525-3.471-1.121-7.271-1.909-11.16-.119-.608-.25-1.267-.382-1.824a93.832,93.832,0,0,0-3.412-12.186,52.368,52.368,0,0,0-4.187-9.02c-1.551-2.534-3.114-5.3-4.677-8.082-4.2-7.5-8.351-15.493-11.835-22.346-.239-.494-.477-.963-.716-1.432-.883-1.748-1.718-3.408-2.469-4.953-1.563-3.167-2.875-5.853-3.817-7.8l-1.515-3.18a3.024,3.024,0,0,0-.155-.329l-1.849-5.5-3.579-10.616-4.164-12.4-1.969-5.84-1.42-4.244-.453-1.343-7.063-21.041s-.5-3.053-1.193-8.082c-1.873-13.225-5.273-40.119-5.261-61.186a121.087,121.087,0,0,1,.835-15.366c.083-.557.155-1.1.25-1.634s.191-1.165.3-1.723a21.252,21.252,0,0,1,3.066-8.272c11.071-14.973,22.882-34.862,21.88-40.208l.227-.266a11.241,11.241,0,0,1,1.623-1.495,6.186,6.186,0,0,1,2.386-1.14,3.821,3.821,0,0,1,1.074,0h0c2.684.355,4.366,2.141,7.719,3.572s11.417,1.773,11.417,2.85,7.051,5.346,11.751,6.423,19.482,11.756,23.168,32.442c3.579,19.927,9.616,26.273,10.057,26.729h0l-1.324.684-20.2,10.527-4.331,2.242-9.747,5.067s2.553,11.49,6.192,27.73a3.621,3.621,0,0,0,.155.671c.107.481.215.975.334,1.469,2.672,11.908,5.87,26.1,9.055,40.094l.286,1.267.931,4.054c.286,1.267.584,2.534.871,3.8l.465,2.014c.883,3.876,1.766,7.7,2.625,11.4,1.277,5.485,2.493,10.692,3.579,15.455,3.1,13.124,5.5,22.739,6.359,24.994,1.193,3.268,2.052,12.452,2.6,22.8C1119.548,553.791,1119.75,572.273,1119.774,576.137Z" transform="translate(-26.326 12.69)" fill="#f6c7ad"/>
    <path id="Path_20" data-name="Path 20" d="M1118.595,438.868c-.99.177-2.255.329-3.722.481-10.737,1.039-31.865,1.267-31.865,1.267s-15.784-33.164-29.217-32.088c0,0,12.419-14.973,17.466-13.187.835.291,1.36-.367,1.623-1.647,1.336-6.334-3.3-28.313-3.3-28.313l-6.383-29.592,36.984,9.628c3.364.709,13.768,6.423,13.768,6.423s.334,15.328,3.018,18.888,5.715,20.687,5.381,24.968,3.686,24.246-.334,29.592S1126.994,437.4,1118.595,438.868Z" transform="translate(-20.768 24.471)" opacity="0.1"/>
    <path id="Path_21" data-name="Path 21" d="M1119.725,438.868c-1,.177-2.255.329-3.722.481-10.737,1.039-31.877,1.267-31.877,1.267s-15.784-33.164-29.205-32.088c0,0,12.419-14.973,17.454-13.187.847.291,1.372-.367,1.623-1.647,1.348-6.334-3.3-28.313-3.3-28.313l-6.371-29.592,36.984,9.628c3.353.709,13.768,6.423,13.768,6.423s.334,15.328,3.018,18.888,5.7,20.687,5.369,24.968,3.7,24.246-.334,29.592S1128.112,437.4,1119.725,438.868Z" transform="translate(-20.55 24.471)" fill="#f6c7ad"/>
    <path id="Path_22" data-name="Path 22" d="M1077.43,355.8s30.9,3.572,32.212,11.768S1077.43,355.8,1077.43,355.8Z" transform="translate(-16.205 29.81)" opacity="0.1"/>
    <path id="Path_23" data-name="Path 23" d="M1065.693,275.4a43.962,43.962,0,0,1-11.012,29.364.626.626,0,0,1-.1-.2c-1.193-2.711-2.386-5.523-2.243-8.5.107-3.585,2.052-6.828,2.684-10.375.8-4.484-.585-9.032-1.945-13.352-.99-3.167-2.911-7.005-6.037-6.613a7.775,7.775,0,0,1-1.849.228c-1.67-.279-2-2.534-2.183-4.358-1.041-8.554-7.19-15.4-15.187-16.912a4.431,4.431,0,0,0-2.66.19c-1.193.557-1.79,1.888-2.839,2.66-3.412,2.534-7.755-2.293-11.93-1.926-3.579.317-5.667,4.142-7.158,7.6s-3.269,7.309-6.717,8.107a1.936,1.936,0,0,1-1.634-.19c-1.074-.836-.334-2.534.227-3.889,1.408-3.382.465-6.081-1.265-8.5,10.677-14.21,28.648-19.7,44.8-13.688s26.968,22.213,26.955,40.392Z" transform="translate(-32.338 -3.05)" opacity="0.1"/>
    <path id="Path_24" data-name="Path 24" d="M950.844,556.193q-5.154-2.774-10.045-5.967-6.836-4.447-13.243-9.577l-4.116-35.47-.131-1.165L915.5,436.52l-.465-3.99,12.98-.418,9.186-.291.62,5.739,5.225,47.568.131,1.14Z" transform="translate(-47.551 50.091)" fill="#b2b1bb"/>
    <path id="Path_25" data-name="Path 25" d="M940.8,550.145q-6.836-4.446-13.243-9.577l-4.116-35.47-.131-1.165L915.5,436.438l-.465-3.99,12.98-.418-.561,2.2.322,2.774,6.5,56.385.131,1.165Z" transform="translate(-47.551 50.147)" opacity="0.1"/>
    <path id="Path_26" data-name="Path 26" d="M1017.542,432.92l-.7,6.043-1.086,9.159-2.386,20.18-.167,1.393-.167,1.431-6.514,55.3-2.016,17.19-.668,5.637-.072.659-2.625,22.46-2.983-.215h-.537c-2.064-.165-4.128-.367-6.18-.6-1.193-.127-2.386-.266-3.579-.431-1.813-.228-3.579-.494-5.416-.773h-.083l-1.73-.291,1.634-12.516v-.431l7.635-60.628,3.233-25.678.179-1.419.179-1.419,2.541-20.167,1.074-8.462.62-4.991.776-.063Z" transform="translate(-34.889 50.384)" fill="#b2b1bb"/>
    <path id="Path_27" data-name="Path 27" d="M1006.469,435.849l-.334,3.028-.978,8.779-2.243,20.18-.155,1.406-.2,1.495-4.438,39.954-4.772,42.539v.494l-1.193,10.616-.764,6.917c-1.193-.127-2.386-.266-3.579-.431-1.813-.228-3.579-.494-5.416-.773h-.083l-1.73-.291,1.694-12.5v-.431l7.635-60.628,3.233-25.678.179-1.419.179-1.419,2.541-20.167,1.074-8.462.62-4.991.776-.063Z" transform="translate(-34.899 50.672)" opacity="0.2"/>
    <path id="Path_28" data-name="Path 28" d="M1087.964,551.925l.513,3.686q-3.209,1.735-6.454,3.256-3.937,1.862-7.934,3.408l-1.992-16.7-1.312-10.882-2.255-18.786-2.171-18.14-.37-3.028-5.285-44.034-.931-7.727-.286-2.534-.274-2.28-.632-5.27h.429l9.079-1.051,2.911-.317.907,6.448,1.288,9.172,8.518,60.426,1.813,12.858,1.694,12.022,2.649,18.824Z" transform="translate(-19.844 50.013)" fill="#65617d"/>
    <path id="Path_29" data-name="Path 29" d="M1087.964,551.925l.513,3.686q-3.209,1.735-6.454,3.256-3.937,1.862-7.934,3.408l-1.992-16.7-1.312-10.882-2.255-18.786-2.171-18.14-.37-3.028-5.285-44.034-.931-7.727-.286-2.534-.274-2.28-.632-5.27h.429l9.079-1.051,2.911-.317.907,6.448,1.288,9.172,8.518,60.426,1.813,12.858,1.694,12.022,2.649,18.824Z" transform="translate(-19.844 50.013)" fill="#ccc" opacity="0.1"/>
    <path id="Path_30" data-name="Path 30" d="M1086.939,555.614q-3.209,1.735-6.454,3.256l-1.36-12.592-.906-8.437-1.277-11.794-.215-2.014-1.443-13.428-6.741-62.567-1.086-10.02-.346-3.294-.561-2.888,2.911-.317.907,6.448,1.289,9.172,8.518,60.426,1.813,12.858,1.694,12.022,2.648,18.824.1.659Z" transform="translate(-18.305 50.011)" fill="#b2b1bb"/>
    <path id="Path_31" data-name="Path 31" d="M1109.988,432.453l-.072,4.852-1.432,99.9c-.728.621-1.467,1.267-2.207,1.837v.735l-1.3.621-.919.431c-.823.671-1.658,1.267-2.505,1.964l-.6.443c-1.992,1.507-4,2.964-6.037,4.37v-3.053l1.193-86.141.072-5.3.215-15.531.1-6.9,9.043,1.2Z" transform="translate(-12.829 49.786)" fill="#65617d"/>
    <path id="Path_32" data-name="Path 32" d="M1109.988,432.453l-.072,4.852-1.432,99.9c-.728.621-1.467,1.267-2.207,1.837v.735l-1.3.621-.919.431c-.823.671-1.658,1.267-2.505,1.964l-.6.443c-1.992,1.507-4,2.964-6.037,4.37v-3.053l1.193-86.141.072-5.3.215-15.531.1-6.9,9.043,1.2Z" transform="translate(-12.829 49.786)" fill="#ccc" opacity="0.1"/>
    <path id="Path_33" data-name="Path 33" d="M1108.361,432.211l-.072,4.852-1.432,99.9c-.728.621-1.467,1.267-2.207,1.837v.735l-1.3.621v-.291l.215-39.27.358-63.479V431.59Z" transform="translate(-11.202 50.029)" fill="#b2b1bb"/>
    <path id="Path_34" data-name="Path 34" d="M1219.388,429.054a.2.2,0,0,0,0,.076,6.983,6.983,0,0,1-.155,1.1c-.441,2.99-.966,5.992-1.6,8.994l-59.949,1.165-4.355.089-9.1.177-3.83.076h-1.336l-26.4.519h-2.911l-9.544.19h-.2l-7.325.152-11.823.228h-1.324l-36.984.722-10.737.2-9.019.177-7.862.152h-4.307l-5.965.114-27.165-1.267-1.336-.063-25.268-1.153-10.045-.469-12.276-.57-74.242-3.408q-2.72-5.4-5.273-10.97c-.525-1.14-1.038-2.28-1.551-3.433l75.566-1.267h0l46.528-.76h0l8.792-.139h1.348l23.86-.393,8.172.481h.143l4.1.241,1.336.076,16.3.963h0l39.62,2.318,1.372.076,18.516,1.089,5.6.329h.119l36.984,2.166,1.36.089h.3Z" transform="translate(-60.586 46.751)" fill="#65617d"/>
    <path id="Path_35" data-name="Path 35" d="M1219.39,429.041a.17.17,0,0,1,0,.076,6.983,6.983,0,0,1-.155,1.1c-.441,2.99-.966,5.992-1.6,8.994l-59.949,1.165-4.343.089-9.115.177-3.83.076h-1.336l-26.4.519h-2.911l-9.544.19h-.2l-7.325.152-11.823.228h-1.324l-36.984.722-10.737.2-9.019.177-7.862.152h-4.307l-5.965.114-27.177-1.267h-1.336l-25.256-1.165-10.057-.456-12.276-.557-74.241-3.42q-2.72-5.4-5.273-10.97c-.525-1.14-1.038-2.28-1.551-3.433l75.566-1.267h0l46.528-.76h0l8.792-.139h1.348l23.86-.393,8.172.481h.155l4.1.241,1.336.089,16.3.95h0l39.62,2.318,1.36.076,18.516,1.089,5.6.329h.119l36.984,2.166,1.36.089h.3Z" transform="translate(-60.588 46.764)" fill="#b2b1bb"/>
    <path id="Path_36" data-name="Path 36" d="M1219.394,429.022a.17.17,0,0,1,0,.076l-81.615.215h-1.336l-37.187.1h-23.944l-58.911.152h-5.094l-32.51.089h-1.336l-33.941.089-94.5-4.332c-.525-1.14-1.038-2.28-1.551-3.433l75.566-1.267h0l46.528-.76h0l8.792-.139H979.7l23.86-.393,8.172.481h.155l4.1.241,1.336.089,16.3.95h0l39.62,2.318,1.36.076,18.516,1.089,5.6.329h.119l36.984,2.166,1.36.089h.3Z" transform="translate(-60.592 46.783)" opacity="0.1"/>
    <path id="Path_37" data-name="Path 37" d="M1092.91,381.14c2.016.709,13.767,3.914,16.118,11.4S1092.91,381.14,1092.91,381.14Z" transform="translate(-13.217 36.57)" opacity="0.1"/>
    <path id="Path_39" data-name="Path 39" d="M1114.883,427.155c-10.737,1.039-31.865,1.267-31.865,1.267s-15.784-33.164-29.217-32.088c0,0,12.419-14.973,17.466-13.187.835.291,1.36-.367,1.622-1.647,13.123,4.269,38.177,14.707,40.682,33.012C1114.214,419.466,1114.632,423.621,1114.883,427.155Z" transform="translate(-20.766 36.666)" opacity="0.1"/>
    <path id="Path_40" data-name="Path 40" d="M1116,427.155c-10.737,1.039-31.877,1.267-31.877,1.267s-15.784-33.164-29.205-32.088c0,0,12.419-14.973,17.454-13.187.847.291,1.372-.367,1.623-1.647,13.123,4.269,38.177,14.707,40.694,33.012C1115.346,419.466,1115.764,423.621,1116,427.155Z" transform="translate(-20.55 36.666)" fill="#464353"/>
    <path id="Path_41" data-name="Path 41" d="M1114.883,427.155c-10.737,1.051-31.865,1.267-31.865,1.267s-15.784-33.164-29.217-32.088c0,0,12.419-14.973,17.466-13.2.835.3,1.36-.355,1.622-1.634,13.123,4.269,38.177,14.707,40.682,33.012C1114.214,419.478,1114.632,423.633,1114.883,427.155Z" transform="translate(-20.766 36.666)" opacity="0.1"/>
    <path id="Path_42" data-name="Path 42" d="M1027.05,493.9s30.219-7.854,34.92-3.572S1027.05,493.9,1027.05,493.9Z" transform="translate(-25.93 65.359)" opacity="0.1"/>
    <path id="Path_43" data-name="Path 43" d="M954.43,517.08s12.765,7.841,14.1,14.264S954.43,517.08,954.43,517.08Z" transform="translate(-39.947 72.837)" opacity="0.1"/>
    <g id="Group_1" data-name="Group 1" transform="translate(862.17 381.531)" opacity="0.2">
      <ellipse id="Ellipse_2" data-name="Ellipse 2" cx="0.561" cy="0.595" rx="0.561" ry="0.595" transform="translate(0 0)"/>
      <ellipse id="Ellipse_3" data-name="Ellipse 3" cx="0.561" cy="0.595" rx="0.561" ry="0.595" transform="translate(2.827 0.836)"/>
      <ellipse id="Ellipse_4" data-name="Ellipse 4" cx="0.561" cy="0.595" rx="0.561" ry="0.595" transform="translate(6.311 2.014)"/>
      <ellipse id="Ellipse_5" data-name="Ellipse 5" cx="0.561" cy="0.595" rx="0.561" ry="0.595" transform="translate(12.574 3.446)"/>
      <ellipse id="Ellipse_6" data-name="Ellipse 6" cx="0.561" cy="0.595" rx="0.561" ry="0.595" transform="translate(19.172 4.294)"/>
      <ellipse id="Ellipse_7" data-name="Ellipse 7" cx="0.561" cy="0.595" rx="0.561" ry="0.595" transform="translate(26.008 4.636)"/>
      <ellipse id="Ellipse_8" data-name="Ellipse 8" cx="0.561" cy="0.595" rx="0.561" ry="0.595" transform="translate(35.814 3.205)"/>
      <ellipse id="Ellipse_9" data-name="Ellipse 9" cx="0.561" cy="0.595" rx="0.561" ry="0.595" transform="translate(32.569 4.041)"/>
      <ellipse id="Ellipse_10" data-name="Ellipse 10" cx="0.561" cy="0.595" rx="0.561" ry="0.595" transform="translate(41.887 2.014)"/>
      <ellipse id="Ellipse_11" data-name="Ellipse 11" cx="0.561" cy="0.595" rx="0.561" ry="0.595" transform="translate(38.964 2.61)"/>
      <ellipse id="Ellipse_12" data-name="Ellipse 12" cx="0.561" cy="0.595" rx="0.561" ry="0.595" transform="translate(45.096 0.836)"/>
      <ellipse id="Ellipse_13" data-name="Ellipse 13" cx="0.561" cy="0.595" rx="0.561" ry="0.595" transform="translate(9.508 2.863)"/>
      <ellipse id="Ellipse_14" data-name="Ellipse 14" cx="0.561" cy="0.595" rx="0.561" ry="0.595" transform="translate(15.975 4.041)"/>
      <ellipse id="Ellipse_15" data-name="Ellipse 15" cx="0.561" cy="0.595" rx="0.561" ry="0.595" transform="translate(22.978 4.636)"/>
      <ellipse id="Ellipse_16" data-name="Ellipse 16" cx="0.561" cy="0.595" rx="0.561" ry="0.595" transform="translate(29.348 4.636)"/>
    </g>
    <g id="Group_2" data-name="Group 2" transform="translate(862.17 384.432)" opacity="0.2">
      <ellipse id="Ellipse_17" data-name="Ellipse 17" cx="0.561" cy="0.595" rx="0.561" ry="0.595" transform="translate(0 0)"/>
      <ellipse id="Ellipse_18" data-name="Ellipse 18" cx="0.561" cy="0.595" rx="0.561" ry="0.595" transform="translate(2.827 0.849)"/>
      <ellipse id="Ellipse_19" data-name="Ellipse 19" cx="0.561" cy="0.595" rx="0.561" ry="0.595" transform="translate(6.311 2.027)"/>
      <ellipse id="Ellipse_20" data-name="Ellipse 20" cx="0.561" cy="0.595" rx="0.561" ry="0.595" transform="translate(12.574 3.458)"/>
      <ellipse id="Ellipse_21" data-name="Ellipse 21" cx="0.561" cy="0.595" rx="0.561" ry="0.595" transform="translate(19.172 4.307)"/>
      <ellipse id="Ellipse_22" data-name="Ellipse 22" cx="0.561" cy="0.595" rx="0.561" ry="0.595" transform="translate(26.008 4.636)"/>
      <ellipse id="Ellipse_23" data-name="Ellipse 23" cx="0.561" cy="0.595" rx="0.561" ry="0.595" transform="translate(35.814 3.205)"/>
      <ellipse id="Ellipse_24" data-name="Ellipse 24" cx="0.561" cy="0.595" rx="0.561" ry="0.595" transform="translate(32.569 4.054)"/>
      <ellipse id="Ellipse_25" data-name="Ellipse 25" cx="0.561" cy="0.595" rx="0.561" ry="0.595" transform="translate(41.887 2.027)"/>
      <ellipse id="Ellipse_26" data-name="Ellipse 26" cx="0.561" cy="0.595" rx="0.561" ry="0.595" transform="translate(38.964 2.622)"/>
      <ellipse id="Ellipse_27" data-name="Ellipse 27" cx="0.561" cy="0.595" rx="0.561" ry="0.595" transform="translate(45.096 0.849)"/>
      <ellipse id="Ellipse_28" data-name="Ellipse 28" cx="0.561" cy="0.595" rx="0.561" ry="0.595" transform="translate(9.508 2.863)"/>
      <ellipse id="Ellipse_29" data-name="Ellipse 29" cx="0.561" cy="0.595" rx="0.561" ry="0.595" transform="translate(15.975 4.054)"/>
      <ellipse id="Ellipse_30" data-name="Ellipse 30" cx="0.561" cy="0.595" rx="0.561" ry="0.595" transform="translate(22.978 4.636)"/>
      <ellipse id="Ellipse_31" data-name="Ellipse 31" cx="0.561" cy="0.595" rx="0.561" ry="0.595" transform="translate(29.348 4.636)"/>
    </g>
    <g id="Group_3" data-name="Group 3" transform="translate(862.17 387.345)" opacity="0.2">
      <ellipse id="Ellipse_32" data-name="Ellipse 32" cx="0.561" cy="0.595" rx="0.561" ry="0.595" transform="translate(0 0)"/>
      <ellipse id="Ellipse_33" data-name="Ellipse 33" cx="0.561" cy="0.595" rx="0.561" ry="0.595" transform="translate(2.827 0.836)"/>
      <ellipse id="Ellipse_34" data-name="Ellipse 34" cx="0.561" cy="0.595" rx="0.561" ry="0.595" transform="translate(6.311 2.027)"/>
      <ellipse id="Ellipse_35" data-name="Ellipse 35" cx="0.561" cy="0.595" rx="0.561" ry="0.595" transform="translate(12.574 3.458)"/>
      <ellipse id="Ellipse_36" data-name="Ellipse 36" cx="0.561" cy="0.595" rx="0.561" ry="0.595" transform="translate(19.172 4.307)"/>
      <ellipse id="Ellipse_37" data-name="Ellipse 37" cx="0.561" cy="0.595" rx="0.561" ry="0.595" transform="translate(26.008 4.636)"/>
      <ellipse id="Ellipse_38" data-name="Ellipse 38" cx="0.561" cy="0.595" rx="0.561" ry="0.595" transform="translate(35.814 3.205)"/>
      <ellipse id="Ellipse_39" data-name="Ellipse 39" cx="0.561" cy="0.595" rx="0.561" ry="0.595" transform="translate(32.569 4.041)"/>
      <ellipse id="Ellipse_40" data-name="Ellipse 40" cx="0.561" cy="0.595" rx="0.561" ry="0.595" transform="translate(41.887 2.027)"/>
      <ellipse id="Ellipse_41" data-name="Ellipse 41" cx="0.561" cy="0.595" rx="0.561" ry="0.595" transform="translate(38.964 2.61)"/>
      <ellipse id="Ellipse_42" data-name="Ellipse 42" cx="0.561" cy="0.595" rx="0.561" ry="0.595" transform="translate(45.096 0.836)"/>
      <ellipse id="Ellipse_43" data-name="Ellipse 43" cx="0.561" cy="0.595" rx="0.561" ry="0.595" transform="translate(9.508 2.863)"/>
      <ellipse id="Ellipse_44" data-name="Ellipse 44" cx="0.561" cy="0.595" rx="0.561" ry="0.595" transform="translate(15.975 4.041)"/>
      <ellipse id="Ellipse_45" data-name="Ellipse 45" cx="0.561" cy="0.595" rx="0.561" ry="0.595" transform="translate(22.978 4.636)"/>
      <ellipse id="Ellipse_46" data-name="Ellipse 46" cx="0.561" cy="0.595" rx="0.561" ry="0.595" transform="translate(29.348 4.636)"/>
    </g>
    <g id="Group_4" data-name="Group 4" transform="translate(862.17 390.259)" opacity="0.2">
      <ellipse id="Ellipse_47" data-name="Ellipse 47" cx="0.561" cy="0.595" rx="0.561" ry="0.595" transform="translate(0 0)"/>
      <ellipse id="Ellipse_48" data-name="Ellipse 48" cx="0.561" cy="0.595" rx="0.561" ry="0.595" transform="translate(2.827 0.836)"/>
      <ellipse id="Ellipse_49" data-name="Ellipse 49" cx="0.561" cy="0.595" rx="0.561" ry="0.595" transform="translate(6.311 2.014)"/>
      <ellipse id="Ellipse_50" data-name="Ellipse 50" cx="0.561" cy="0.595" rx="0.561" ry="0.595" transform="translate(12.574 3.446)"/>
      <ellipse id="Ellipse_51" data-name="Ellipse 51" cx="0.561" cy="0.595" rx="0.561" ry="0.595" transform="translate(19.172 4.294)"/>
      <ellipse id="Ellipse_52" data-name="Ellipse 52" cx="0.561" cy="0.595" rx="0.561" ry="0.595" transform="translate(26.008 4.624)"/>
      <ellipse id="Ellipse_53" data-name="Ellipse 53" cx="0.561" cy="0.595" rx="0.561" ry="0.595" transform="translate(35.814 3.192)"/>
      <ellipse id="Ellipse_54" data-name="Ellipse 54" cx="0.561" cy="0.595" rx="0.561" ry="0.595" transform="translate(32.569 4.041)"/>
      <ellipse id="Ellipse_55" data-name="Ellipse 55" cx="0.561" cy="0.595" rx="0.561" ry="0.595" transform="translate(41.887 2.014)"/>
      <ellipse id="Ellipse_56" data-name="Ellipse 56" cx="0.561" cy="0.595" rx="0.561" ry="0.595" transform="translate(38.964 2.61)"/>
      <ellipse id="Ellipse_57" data-name="Ellipse 57" cx="0.561" cy="0.595" rx="0.561" ry="0.595" transform="translate(45.096 0.836)"/>
      <ellipse id="Ellipse_58" data-name="Ellipse 58" cx="0.561" cy="0.595" rx="0.561" ry="0.595" transform="translate(9.508 2.85)"/>
      <ellipse id="Ellipse_59" data-name="Ellipse 59" cx="0.561" cy="0.595" rx="0.561" ry="0.595" transform="translate(15.975 4.041)"/>
      <ellipse id="Ellipse_60" data-name="Ellipse 60" cx="0.561" cy="0.595" rx="0.561" ry="0.595" transform="translate(22.978 4.624)"/>
      <ellipse id="Ellipse_61" data-name="Ellipse 61" cx="0.561" cy="0.595" rx="0.561" ry="0.595" transform="translate(29.348 4.624)"/>
    </g>
    <g id="Group_5" data-name="Group 5" transform="translate(862.17 393.16)" opacity="0.2">
      <ellipse id="Ellipse_62" data-name="Ellipse 62" cx="0.561" cy="0.595" rx="0.561" ry="0.595" transform="translate(0 0)"/>
      <ellipse id="Ellipse_63" data-name="Ellipse 63" cx="0.561" cy="0.595" rx="0.561" ry="0.595" transform="translate(2.827 0.836)"/>
      <ellipse id="Ellipse_64" data-name="Ellipse 64" cx="0.561" cy="0.595" rx="0.561" ry="0.595" transform="translate(6.311 2.027)"/>
      <ellipse id="Ellipse_65" data-name="Ellipse 65" cx="0.561" cy="0.595" rx="0.561" ry="0.595" transform="translate(12.574 3.458)"/>
      <ellipse id="Ellipse_66" data-name="Ellipse 66" cx="0.561" cy="0.595" rx="0.561" ry="0.595" transform="translate(19.172 4.307)"/>
      <ellipse id="Ellipse_67" data-name="Ellipse 67" cx="0.561" cy="0.595" rx="0.561" ry="0.595" transform="translate(26.008 4.636)"/>
      <ellipse id="Ellipse_68" data-name="Ellipse 68" cx="0.561" cy="0.595" rx="0.561" ry="0.595" transform="translate(35.814 3.205)"/>
      <ellipse id="Ellipse_69" data-name="Ellipse 69" cx="0.561" cy="0.595" rx="0.561" ry="0.595" transform="translate(32.569 4.041)"/>
      <ellipse id="Ellipse_70" data-name="Ellipse 70" cx="0.561" cy="0.595" rx="0.561" ry="0.595" transform="translate(41.887 2.027)"/>
      <ellipse id="Ellipse_71" data-name="Ellipse 71" cx="0.561" cy="0.595" rx="0.561" ry="0.595" transform="translate(38.964 2.61)"/>
      <ellipse id="Ellipse_72" data-name="Ellipse 72" cx="0.561" cy="0.595" rx="0.561" ry="0.595" transform="translate(45.096 0.836)"/>
      <ellipse id="Ellipse_73" data-name="Ellipse 73" cx="0.561" cy="0.595" rx="0.561" ry="0.595" transform="translate(9.508 2.863)"/>
      <ellipse id="Ellipse_74" data-name="Ellipse 74" cx="0.561" cy="0.595" rx="0.561" ry="0.595" transform="translate(15.975 4.041)"/>
      <ellipse id="Ellipse_75" data-name="Ellipse 75" cx="0.561" cy="0.595" rx="0.561" ry="0.595" transform="translate(22.978 4.636)"/>
      <ellipse id="Ellipse_76" data-name="Ellipse 76" cx="0.561" cy="0.595" rx="0.561" ry="0.595" transform="translate(29.348 4.636)"/>
    </g>
    <g id="Group_6" data-name="Group 6" transform="translate(862.17 396.073)" opacity="0.2">
      <ellipse id="Ellipse_77" data-name="Ellipse 77" cx="0.561" cy="0.595" rx="0.561" ry="0.595" transform="translate(0 0)"/>
      <ellipse id="Ellipse_78" data-name="Ellipse 78" cx="0.561" cy="0.595" rx="0.561" ry="0.595" transform="translate(2.827 0.836)"/>
      <ellipse id="Ellipse_79" data-name="Ellipse 79" cx="0.561" cy="0.595" rx="0.561" ry="0.595" transform="translate(6.311 2.014)"/>
      <ellipse id="Ellipse_80" data-name="Ellipse 80" cx="0.561" cy="0.595" rx="0.561" ry="0.595" transform="translate(12.574 3.446)"/>
      <ellipse id="Ellipse_81" data-name="Ellipse 81" cx="0.561" cy="0.595" rx="0.561" ry="0.595" transform="translate(19.172 4.294)"/>
      <ellipse id="Ellipse_82" data-name="Ellipse 82" cx="0.561" cy="0.595" rx="0.561" ry="0.595" transform="translate(26.008 4.636)"/>
      <ellipse id="Ellipse_83" data-name="Ellipse 83" cx="0.561" cy="0.595" rx="0.561" ry="0.595" transform="translate(35.814 3.192)"/>
      <ellipse id="Ellipse_84" data-name="Ellipse 84" cx="0.561" cy="0.595" rx="0.561" ry="0.595" transform="translate(32.569 4.041)"/>
      <ellipse id="Ellipse_85" data-name="Ellipse 85" cx="0.561" cy="0.595" rx="0.561" ry="0.595" transform="translate(41.887 2.014)"/>
      <ellipse id="Ellipse_86" data-name="Ellipse 86" cx="0.561" cy="0.595" rx="0.561" ry="0.595" transform="translate(38.964 2.61)"/>
      <ellipse id="Ellipse_87" data-name="Ellipse 87" cx="0.561" cy="0.595" rx="0.561" ry="0.595" transform="translate(45.096 0.836)"/>
      <ellipse id="Ellipse_88" data-name="Ellipse 88" cx="0.561" cy="0.595" rx="0.561" ry="0.595" transform="translate(9.508 2.863)"/>
      <ellipse id="Ellipse_89" data-name="Ellipse 89" cx="0.561" cy="0.595" rx="0.561" ry="0.595" transform="translate(15.975 4.041)"/>
      <ellipse id="Ellipse_90" data-name="Ellipse 90" cx="0.561" cy="0.595" rx="0.561" ry="0.595" transform="translate(22.978 4.636)"/>
      <ellipse id="Ellipse_91" data-name="Ellipse 91" cx="0.561" cy="0.595" rx="0.561" ry="0.595" transform="translate(29.348 4.636)"/>
    </g>
    <g id="Group_7" data-name="Group 7" transform="translate(862.17 398.974)" opacity="0.2">
      <ellipse id="Ellipse_92" data-name="Ellipse 92" cx="0.561" cy="0.595" rx="0.561" ry="0.595" transform="translate(0 0)"/>
      <ellipse id="Ellipse_93" data-name="Ellipse 93" cx="0.561" cy="0.595" rx="0.561" ry="0.595" transform="translate(2.827 0.836)"/>
      <ellipse id="Ellipse_94" data-name="Ellipse 94" cx="0.561" cy="0.595" rx="0.561" ry="0.595" transform="translate(6.311 2.027)"/>
      <ellipse id="Ellipse_95" data-name="Ellipse 95" cx="0.561" cy="0.595" rx="0.561" ry="0.595" transform="translate(12.574 3.458)"/>
      <ellipse id="Ellipse_96" data-name="Ellipse 96" cx="0.561" cy="0.595" rx="0.561" ry="0.595" transform="translate(19.172 4.307)"/>
      <ellipse id="Ellipse_97" data-name="Ellipse 97" cx="0.561" cy="0.595" rx="0.561" ry="0.595" transform="translate(26.008 4.636)"/>
      <ellipse id="Ellipse_98" data-name="Ellipse 98" cx="0.561" cy="0.595" rx="0.561" ry="0.595" transform="translate(35.814 3.205)"/>
      <ellipse id="Ellipse_99" data-name="Ellipse 99" cx="0.561" cy="0.595" rx="0.561" ry="0.595" transform="translate(32.569 4.041)"/>
      <ellipse id="Ellipse_100" data-name="Ellipse 100" cx="0.561" cy="0.595" rx="0.561" ry="0.595" transform="translate(41.887 2.027)"/>
      <ellipse id="Ellipse_101" data-name="Ellipse 101" cx="0.561" cy="0.595" rx="0.561" ry="0.595" transform="translate(38.964 2.61)"/>
      <ellipse id="Ellipse_102" data-name="Ellipse 102" cx="0.561" cy="0.595" rx="0.561" ry="0.595" transform="translate(45.096 0.836)"/>
      <ellipse id="Ellipse_103" data-name="Ellipse 103" cx="0.561" cy="0.595" rx="0.561" ry="0.595" transform="translate(9.508 2.863)"/>
      <ellipse id="Ellipse_104" data-name="Ellipse 104" cx="0.561" cy="0.595" rx="0.561" ry="0.595" transform="translate(15.975 4.041)"/>
      <ellipse id="Ellipse_105" data-name="Ellipse 105" cx="0.561" cy="0.595" rx="0.561" ry="0.595" transform="translate(22.978 4.636)"/>
      <ellipse id="Ellipse_106" data-name="Ellipse 106" cx="0.561" cy="0.595" rx="0.561" ry="0.595" transform="translate(29.348 4.636)"/>
    </g>
    <g id="Group_8" data-name="Group 8" transform="translate(862.17 401.888)" opacity="0.2">
      <ellipse id="Ellipse_107" data-name="Ellipse 107" cx="0.561" cy="0.595" rx="0.561" ry="0.595" transform="translate(0 0)"/>
      <ellipse id="Ellipse_108" data-name="Ellipse 108" cx="0.561" cy="0.595" rx="0.561" ry="0.595" transform="translate(2.827 0.836)"/>
      <ellipse id="Ellipse_109" data-name="Ellipse 109" cx="0.561" cy="0.595" rx="0.561" ry="0.595" transform="translate(6.311 2.014)"/>
      <ellipse id="Ellipse_110" data-name="Ellipse 110" cx="0.561" cy="0.595" rx="0.561" ry="0.595" transform="translate(12.574 3.446)"/>
      <ellipse id="Ellipse_111" data-name="Ellipse 111" cx="0.561" cy="0.595" rx="0.561" ry="0.595" transform="translate(19.172 4.294)"/>
      <ellipse id="Ellipse_112" data-name="Ellipse 112" cx="0.561" cy="0.595" rx="0.561" ry="0.595" transform="translate(26.008 4.636)"/>
      <ellipse id="Ellipse_113" data-name="Ellipse 113" cx="0.561" cy="0.595" rx="0.561" ry="0.595" transform="translate(35.814 3.205)"/>
      <ellipse id="Ellipse_114" data-name="Ellipse 114" cx="0.561" cy="0.595" rx="0.561" ry="0.595" transform="translate(32.569 4.041)"/>
      <ellipse id="Ellipse_115" data-name="Ellipse 115" cx="0.561" cy="0.595" rx="0.561" ry="0.595" transform="translate(41.887 2.014)"/>
      <ellipse id="Ellipse_116" data-name="Ellipse 116" cx="0.561" cy="0.595" rx="0.561" ry="0.595" transform="translate(38.964 2.61)"/>
      <ellipse id="Ellipse_117" data-name="Ellipse 117" cx="0.561" cy="0.595" rx="0.561" ry="0.595" transform="translate(45.096 0.836)"/>
      <ellipse id="Ellipse_118" data-name="Ellipse 118" cx="0.561" cy="0.595" rx="0.561" ry="0.595" transform="translate(9.508 2.863)"/>
      <ellipse id="Ellipse_119" data-name="Ellipse 119" cx="0.561" cy="0.595" rx="0.561" ry="0.595" transform="translate(15.975 4.041)"/>
      <ellipse id="Ellipse_120" data-name="Ellipse 120" cx="0.561" cy="0.595" rx="0.561" ry="0.595" transform="translate(22.978 4.636)"/>
      <ellipse id="Ellipse_121" data-name="Ellipse 121" cx="0.561" cy="0.595" rx="0.561" ry="0.595" transform="translate(29.348 4.636)"/>
    </g>
    <g id="Group_9" data-name="Group 9" transform="translate(862.17 404.789)" opacity="0.2">
      <ellipse id="Ellipse_122" data-name="Ellipse 122" cx="0.561" cy="0.595" rx="0.561" ry="0.595" transform="translate(0 0)"/>
      <ellipse id="Ellipse_123" data-name="Ellipse 123" cx="0.561" cy="0.595" rx="0.561" ry="0.595" transform="translate(2.827 0.849)"/>
      <ellipse id="Ellipse_124" data-name="Ellipse 124" cx="0.561" cy="0.595" rx="0.561" ry="0.595" transform="translate(6.311 2.027)"/>
      <ellipse id="Ellipse_125" data-name="Ellipse 125" cx="0.561" cy="0.595" rx="0.561" ry="0.595" transform="translate(12.574 3.458)"/>
      <ellipse id="Ellipse_126" data-name="Ellipse 126" cx="0.561" cy="0.595" rx="0.561" ry="0.595" transform="translate(19.172 4.307)"/>
      <ellipse id="Ellipse_127" data-name="Ellipse 127" cx="0.561" cy="0.595" rx="0.561" ry="0.595" transform="translate(26.008 4.636)"/>
      <ellipse id="Ellipse_128" data-name="Ellipse 128" cx="0.561" cy="0.595" rx="0.561" ry="0.595" transform="translate(35.814 3.205)"/>
      <ellipse id="Ellipse_129" data-name="Ellipse 129" cx="0.561" cy="0.595" rx="0.561" ry="0.595" transform="translate(32.569 4.054)"/>
      <ellipse id="Ellipse_130" data-name="Ellipse 130" cx="0.561" cy="0.595" rx="0.561" ry="0.595" transform="translate(41.887 2.027)"/>
      <ellipse id="Ellipse_131" data-name="Ellipse 131" cx="0.561" cy="0.595" rx="0.561" ry="0.595" transform="translate(38.964 2.622)"/>
      <ellipse id="Ellipse_132" data-name="Ellipse 132" cx="0.561" cy="0.595" rx="0.561" ry="0.595" transform="translate(45.096 0.849)"/>
      <ellipse id="Ellipse_133" data-name="Ellipse 133" cx="0.561" cy="0.595" rx="0.561" ry="0.595" transform="translate(9.508 2.863)"/>
      <ellipse id="Ellipse_134" data-name="Ellipse 134" cx="0.561" cy="0.595" rx="0.561" ry="0.595" transform="translate(15.975 4.054)"/>
      <ellipse id="Ellipse_135" data-name="Ellipse 135" cx="0.561" cy="0.595" rx="0.561" ry="0.595" transform="translate(22.978 4.636)"/>
      <ellipse id="Ellipse_136" data-name="Ellipse 136" cx="0.561" cy="0.595" rx="0.561" ry="0.595" transform="translate(29.348 4.636)"/>
    </g>
    <g id="Group_12" data-name="Group 12" transform="translate(862.17 413.517)" opacity="0.2">
      <ellipse id="Ellipse_167" data-name="Ellipse 167" cx="0.561" cy="0.595" rx="0.561" ry="0.595" transform="translate(0 0)"/>
      <ellipse id="Ellipse_168" data-name="Ellipse 168" cx="0.561" cy="0.595" rx="0.561" ry="0.595" transform="translate(2.827 0.836)"/>
      <ellipse id="Ellipse_169" data-name="Ellipse 169" cx="0.561" cy="0.595" rx="0.561" ry="0.595" transform="translate(6.311 2.027)"/>
      <ellipse id="Ellipse_170" data-name="Ellipse 170" cx="0.561" cy="0.595" rx="0.561" ry="0.595" transform="translate(12.574 3.458)"/>
      <ellipse id="Ellipse_171" data-name="Ellipse 171" cx="0.561" cy="0.595" rx="0.561" ry="0.595" transform="translate(19.172 4.307)"/>
      <ellipse id="Ellipse_172" data-name="Ellipse 172" cx="0.561" cy="0.595" rx="0.561" ry="0.595" transform="translate(26.008 4.636)"/>
      <ellipse id="Ellipse_173" data-name="Ellipse 173" cx="0.561" cy="0.595" rx="0.561" ry="0.595" transform="translate(35.814 3.205)"/>
      <ellipse id="Ellipse_174" data-name="Ellipse 174" cx="0.561" cy="0.595" rx="0.561" ry="0.595" transform="translate(32.569 4.041)"/>
      <ellipse id="Ellipse_175" data-name="Ellipse 175" cx="0.561" cy="0.595" rx="0.561" ry="0.595" transform="translate(41.887 2.027)"/>
      <ellipse id="Ellipse_176" data-name="Ellipse 176" cx="0.561" cy="0.595" rx="0.561" ry="0.595" transform="translate(38.964 2.61)"/>
      <ellipse id="Ellipse_177" data-name="Ellipse 177" cx="0.561" cy="0.595" rx="0.561" ry="0.595" transform="translate(45.096 0.836)"/>
      <ellipse id="Ellipse_178" data-name="Ellipse 178" cx="0.561" cy="0.595" rx="0.561" ry="0.595" transform="translate(9.508 2.863)"/>
      <ellipse id="Ellipse_179" data-name="Ellipse 179" cx="0.561" cy="0.595" rx="0.561" ry="0.595" transform="translate(15.975 4.041)"/>
      <ellipse id="Ellipse_180" data-name="Ellipse 180" cx="0.561" cy="0.595" rx="0.561" ry="0.595" transform="translate(22.978 4.636)"/>
      <ellipse id="Ellipse_181" data-name="Ellipse 181" cx="0.561" cy="0.595" rx="0.561" ry="0.595" transform="translate(29.348 4.636)"/>
    </g>
    <g id="Group_13" data-name="Group 13" transform="translate(862.17 416.431)" opacity="0.2">
      <ellipse id="Ellipse_182" data-name="Ellipse 182" cx="0.561" cy="0.595" rx="0.561" ry="0.595"/>
      <ellipse id="Ellipse_183" data-name="Ellipse 183" cx="0.561" cy="0.595" rx="0.561" ry="0.595" transform="translate(2.827 0.836)"/>
      <ellipse id="Ellipse_184" data-name="Ellipse 184" cx="0.561" cy="0.595" rx="0.561" ry="0.595" transform="translate(6.311 2.014)"/>
      <ellipse id="Ellipse_185" data-name="Ellipse 185" cx="0.561" cy="0.595" rx="0.561" ry="0.595" transform="translate(12.574 3.446)"/>
      <ellipse id="Ellipse_186" data-name="Ellipse 186" cx="0.561" cy="0.595" rx="0.561" ry="0.595" transform="translate(19.172 4.294)"/>
      <ellipse id="Ellipse_187" data-name="Ellipse 187" cx="0.561" cy="0.595" rx="0.561" ry="0.595" transform="translate(26.008 4.624)"/>
      <ellipse id="Ellipse_188" data-name="Ellipse 188" cx="0.561" cy="0.595" rx="0.561" ry="0.595" transform="translate(35.814 3.192)"/>
      <ellipse id="Ellipse_189" data-name="Ellipse 189" cx="0.561" cy="0.595" rx="0.561" ry="0.595" transform="translate(32.569 4.041)"/>
      <ellipse id="Ellipse_190" data-name="Ellipse 190" cx="0.561" cy="0.595" rx="0.561" ry="0.595" transform="translate(41.887 2.014)"/>
      <ellipse id="Ellipse_191" data-name="Ellipse 191" cx="0.561" cy="0.595" rx="0.561" ry="0.595" transform="translate(38.964 2.61)"/>
      <ellipse id="Ellipse_192" data-name="Ellipse 192" cx="0.561" cy="0.595" rx="0.561" ry="0.595" transform="translate(45.096 0.836)"/>
      <ellipse id="Ellipse_193" data-name="Ellipse 193" cx="0.561" cy="0.595" rx="0.561" ry="0.595" transform="translate(9.508 2.85)"/>
      <ellipse id="Ellipse_194" data-name="Ellipse 194" cx="0.561" cy="0.595" rx="0.561" ry="0.595" transform="translate(15.975 4.041)"/>
      <ellipse id="Ellipse_195" data-name="Ellipse 195" cx="0.561" cy="0.595" rx="0.561" ry="0.595" transform="translate(22.978 4.624)"/>
      <ellipse id="Ellipse_196" data-name="Ellipse 196" cx="0.561" cy="0.595" rx="0.561" ry="0.595" transform="translate(29.348 4.624)"/>
    </g>
    <g id="Group_14" data-name="Group 14" transform="translate(862.17 419.331)" opacity="0.2">
      <ellipse id="Ellipse_197" data-name="Ellipse 197" cx="0.561" cy="0.595" rx="0.561" ry="0.595" transform="translate(0 0)"/>
      <ellipse id="Ellipse_198" data-name="Ellipse 198" cx="0.561" cy="0.595" rx="0.561" ry="0.595" transform="translate(2.827 0.836)"/>
      <ellipse id="Ellipse_199" data-name="Ellipse 199" cx="0.561" cy="0.595" rx="0.561" ry="0.595" transform="translate(6.311 2.027)"/>
      <ellipse id="Ellipse_200" data-name="Ellipse 200" cx="0.561" cy="0.595" rx="0.561" ry="0.595" transform="translate(12.574 3.458)"/>
      <ellipse id="Ellipse_201" data-name="Ellipse 201" cx="0.561" cy="0.595" rx="0.561" ry="0.595" transform="translate(19.172 4.307)"/>
      <ellipse id="Ellipse_202" data-name="Ellipse 202" cx="0.561" cy="0.595" rx="0.561" ry="0.595" transform="translate(26.008 4.636)"/>
      <ellipse id="Ellipse_203" data-name="Ellipse 203" cx="0.561" cy="0.595" rx="0.561" ry="0.595" transform="translate(35.814 3.205)"/>
      <ellipse id="Ellipse_204" data-name="Ellipse 204" cx="0.561" cy="0.595" rx="0.561" ry="0.595" transform="translate(32.569 4.041)"/>
      <ellipse id="Ellipse_205" data-name="Ellipse 205" cx="0.561" cy="0.595" rx="0.561" ry="0.595" transform="translate(41.887 2.027)"/>
      <ellipse id="Ellipse_206" data-name="Ellipse 206" cx="0.561" cy="0.595" rx="0.561" ry="0.595" transform="translate(38.964 2.61)"/>
      <ellipse id="Ellipse_207" data-name="Ellipse 207" cx="0.561" cy="0.595" rx="0.561" ry="0.595" transform="translate(45.096 0.836)"/>
      <ellipse id="Ellipse_208" data-name="Ellipse 208" cx="0.561" cy="0.595" rx="0.561" ry="0.595" transform="translate(9.508 2.863)"/>
      <ellipse id="Ellipse_209" data-name="Ellipse 209" cx="0.561" cy="0.595" rx="0.561" ry="0.595" transform="translate(15.975 4.041)"/>
      <ellipse id="Ellipse_210" data-name="Ellipse 210" cx="0.561" cy="0.595" rx="0.561" ry="0.595" transform="translate(22.978 4.636)"/>
      <ellipse id="Ellipse_211" data-name="Ellipse 211" cx="0.561" cy="0.595" rx="0.561" ry="0.595" transform="translate(29.348 4.636)"/>
    </g>
    <g id="Group_15" data-name="Group 15" transform="translate(862.17 422.245)" opacity="0.2">
      <ellipse id="Ellipse_212" data-name="Ellipse 212" cx="0.561" cy="0.595" rx="0.561" ry="0.595"/>
      <ellipse id="Ellipse_213" data-name="Ellipse 213" cx="0.561" cy="0.595" rx="0.561" ry="0.595" transform="translate(2.827 0.836)"/>
      <ellipse id="Ellipse_214" data-name="Ellipse 214" cx="0.561" cy="0.595" rx="0.561" ry="0.595" transform="translate(6.311 2.014)"/>
      <ellipse id="Ellipse_215" data-name="Ellipse 215" cx="0.561" cy="0.595" rx="0.561" ry="0.595" transform="translate(12.574 3.446)"/>
      <ellipse id="Ellipse_216" data-name="Ellipse 216" cx="0.561" cy="0.595" rx="0.561" ry="0.595" transform="translate(19.172 4.294)"/>
      <ellipse id="Ellipse_217" data-name="Ellipse 217" cx="0.561" cy="0.595" rx="0.561" ry="0.595" transform="translate(26.008 4.636)"/>
      <ellipse id="Ellipse_218" data-name="Ellipse 218" cx="0.561" cy="0.595" rx="0.561" ry="0.595" transform="translate(35.814 3.192)"/>
      <ellipse id="Ellipse_219" data-name="Ellipse 219" cx="0.561" cy="0.595" rx="0.561" ry="0.595" transform="translate(32.569 4.041)"/>
      <ellipse id="Ellipse_220" data-name="Ellipse 220" cx="0.561" cy="0.595" rx="0.561" ry="0.595" transform="translate(41.887 2.014)"/>
      <ellipse id="Ellipse_221" data-name="Ellipse 221" cx="0.561" cy="0.595" rx="0.561" ry="0.595" transform="translate(38.964 2.61)"/>
      <ellipse id="Ellipse_222" data-name="Ellipse 222" cx="0.561" cy="0.595" rx="0.561" ry="0.595" transform="translate(45.096 0.836)"/>
      <ellipse id="Ellipse_223" data-name="Ellipse 223" cx="0.561" cy="0.595" rx="0.561" ry="0.595" transform="translate(9.508 2.863)"/>
      <ellipse id="Ellipse_224" data-name="Ellipse 224" cx="0.561" cy="0.595" rx="0.561" ry="0.595" transform="translate(15.975 4.041)"/>
      <ellipse id="Ellipse_225" data-name="Ellipse 225" cx="0.561" cy="0.595" rx="0.561" ry="0.595" transform="translate(22.978 4.636)"/>
      <ellipse id="Ellipse_226" data-name="Ellipse 226" cx="0.561" cy="0.595" rx="0.561" ry="0.595" transform="translate(29.348 4.636)"/>
    </g>
    <g id="Group_16" data-name="Group 16" transform="translate(862.17 425.146)" opacity="0.2">
      <ellipse id="Ellipse_227" data-name="Ellipse 227" cx="0.561" cy="0.595" rx="0.561" ry="0.595" transform="translate(0 0)"/>
      <ellipse id="Ellipse_228" data-name="Ellipse 228" cx="0.561" cy="0.595" rx="0.561" ry="0.595" transform="translate(2.827 0.836)"/>
      <ellipse id="Ellipse_229" data-name="Ellipse 229" cx="0.561" cy="0.595" rx="0.561" ry="0.595" transform="translate(6.311 2.027)"/>
      <ellipse id="Ellipse_230" data-name="Ellipse 230" cx="0.561" cy="0.595" rx="0.561" ry="0.595" transform="translate(12.574 3.458)"/>
      <ellipse id="Ellipse_231" data-name="Ellipse 231" cx="0.561" cy="0.595" rx="0.561" ry="0.595" transform="translate(19.172 4.307)"/>
      <ellipse id="Ellipse_232" data-name="Ellipse 232" cx="0.561" cy="0.595" rx="0.561" ry="0.595" transform="translate(26.008 4.636)"/>
      <ellipse id="Ellipse_233" data-name="Ellipse 233" cx="0.561" cy="0.595" rx="0.561" ry="0.595" transform="translate(35.814 3.205)"/>
      <ellipse id="Ellipse_234" data-name="Ellipse 234" cx="0.561" cy="0.595" rx="0.561" ry="0.595" transform="translate(32.569 4.041)"/>
      <ellipse id="Ellipse_235" data-name="Ellipse 235" cx="0.561" cy="0.595" rx="0.561" ry="0.595" transform="translate(41.887 2.027)"/>
      <ellipse id="Ellipse_236" data-name="Ellipse 236" cx="0.561" cy="0.595" rx="0.561" ry="0.595" transform="translate(38.964 2.61)"/>
      <ellipse id="Ellipse_237" data-name="Ellipse 237" cx="0.561" cy="0.595" rx="0.561" ry="0.595" transform="translate(45.096 0.836)"/>
      <ellipse id="Ellipse_238" data-name="Ellipse 238" cx="0.561" cy="0.595" rx="0.561" ry="0.595" transform="translate(9.508 2.863)"/>
      <ellipse id="Ellipse_239" data-name="Ellipse 239" cx="0.561" cy="0.595" rx="0.561" ry="0.595" transform="translate(15.975 4.041)"/>
      <ellipse id="Ellipse_240" data-name="Ellipse 240" cx="0.561" cy="0.595" rx="0.561" ry="0.595" transform="translate(22.978 4.636)"/>
      <ellipse id="Ellipse_241" data-name="Ellipse 241" cx="0.561" cy="0.595" rx="0.561" ry="0.595" transform="translate(29.348 4.636)"/>
    </g>
    <g id="Group_17" data-name="Group 17" transform="translate(862.17 428.06)" opacity="0.2">
      <ellipse id="Ellipse_242" data-name="Ellipse 242" cx="0.561" cy="0.595" rx="0.561" ry="0.595"/>
      <ellipse id="Ellipse_243" data-name="Ellipse 243" cx="0.561" cy="0.595" rx="0.561" ry="0.595" transform="translate(2.827 0.836)"/>
      <ellipse id="Ellipse_244" data-name="Ellipse 244" cx="0.561" cy="0.595" rx="0.561" ry="0.595" transform="translate(6.311 2.014)"/>
      <ellipse id="Ellipse_245" data-name="Ellipse 245" cx="0.561" cy="0.595" rx="0.561" ry="0.595" transform="translate(12.574 3.446)"/>
      <ellipse id="Ellipse_246" data-name="Ellipse 246" cx="0.561" cy="0.595" rx="0.561" ry="0.595" transform="translate(19.172 4.294)"/>
      <ellipse id="Ellipse_247" data-name="Ellipse 247" cx="0.561" cy="0.595" rx="0.561" ry="0.595" transform="translate(26.008 4.636)"/>
      <ellipse id="Ellipse_248" data-name="Ellipse 248" cx="0.561" cy="0.595" rx="0.561" ry="0.595" transform="translate(35.814 3.205)"/>
      <ellipse id="Ellipse_249" data-name="Ellipse 249" cx="0.561" cy="0.595" rx="0.561" ry="0.595" transform="translate(32.569 4.041)"/>
      <ellipse id="Ellipse_250" data-name="Ellipse 250" cx="0.561" cy="0.595" rx="0.561" ry="0.595" transform="translate(41.887 2.014)"/>
      <ellipse id="Ellipse_251" data-name="Ellipse 251" cx="0.561" cy="0.595" rx="0.561" ry="0.595" transform="translate(38.964 2.61)"/>
      <ellipse id="Ellipse_252" data-name="Ellipse 252" cx="0.561" cy="0.595" rx="0.561" ry="0.595" transform="translate(45.096 0.836)"/>
      <ellipse id="Ellipse_253" data-name="Ellipse 253" cx="0.561" cy="0.595" rx="0.561" ry="0.595" transform="translate(9.508 2.863)"/>
      <ellipse id="Ellipse_254" data-name="Ellipse 254" cx="0.561" cy="0.595" rx="0.561" ry="0.595" transform="translate(15.975 4.041)"/>
      <ellipse id="Ellipse_255" data-name="Ellipse 255" cx="0.561" cy="0.595" rx="0.561" ry="0.595" transform="translate(22.978 4.636)"/>
      <ellipse id="Ellipse_256" data-name="Ellipse 256" cx="0.561" cy="0.595" rx="0.561" ry="0.595" transform="translate(29.348 4.636)"/>
    </g>
    <g id="Group_18" data-name="Group 18" transform="translate(862.17 430.961)" opacity="0.2">
      <ellipse id="Ellipse_257" data-name="Ellipse 257" cx="0.561" cy="0.595" rx="0.561" ry="0.595" transform="translate(0 0)"/>
      <ellipse id="Ellipse_258" data-name="Ellipse 258" cx="0.561" cy="0.595" rx="0.561" ry="0.595" transform="translate(2.827 0.849)"/>
      <ellipse id="Ellipse_259" data-name="Ellipse 259" cx="0.561" cy="0.595" rx="0.561" ry="0.595" transform="translate(6.311 2.027)"/>
      <ellipse id="Ellipse_260" data-name="Ellipse 260" cx="0.561" cy="0.595" rx="0.561" ry="0.595" transform="translate(12.574 3.458)"/>
      <ellipse id="Ellipse_261" data-name="Ellipse 261" cx="0.561" cy="0.595" rx="0.561" ry="0.595" transform="translate(19.172 4.307)"/>
      <ellipse id="Ellipse_262" data-name="Ellipse 262" cx="0.561" cy="0.595" rx="0.561" ry="0.595" transform="translate(26.008 4.636)"/>
      <ellipse id="Ellipse_263" data-name="Ellipse 263" cx="0.561" cy="0.595" rx="0.561" ry="0.595" transform="translate(35.814 3.205)"/>
      <ellipse id="Ellipse_264" data-name="Ellipse 264" cx="0.561" cy="0.595" rx="0.561" ry="0.595" transform="translate(32.569 4.054)"/>
      <ellipse id="Ellipse_265" data-name="Ellipse 265" cx="0.561" cy="0.595" rx="0.561" ry="0.595" transform="translate(41.887 2.027)"/>
      <ellipse id="Ellipse_266" data-name="Ellipse 266" cx="0.561" cy="0.595" rx="0.561" ry="0.595" transform="translate(38.964 2.622)"/>
      <ellipse id="Ellipse_267" data-name="Ellipse 267" cx="0.561" cy="0.595" rx="0.561" ry="0.595" transform="translate(45.096 0.849)"/>
      <ellipse id="Ellipse_268" data-name="Ellipse 268" cx="0.561" cy="0.595" rx="0.561" ry="0.595" transform="translate(9.508 2.863)"/>
      <ellipse id="Ellipse_269" data-name="Ellipse 269" cx="0.561" cy="0.595" rx="0.561" ry="0.595" transform="translate(15.975 4.054)"/>
      <ellipse id="Ellipse_270" data-name="Ellipse 270" cx="0.561" cy="0.595" rx="0.561" ry="0.595" transform="translate(22.978 4.636)"/>
      <ellipse id="Ellipse_271" data-name="Ellipse 271" cx="0.561" cy="0.595" rx="0.561" ry="0.595" transform="translate(29.348 4.636)"/>
    </g>
    <g id="Group_19" data-name="Group 19" transform="translate(862.17 433.874)" opacity="0.2">
      <ellipse id="Ellipse_272" data-name="Ellipse 272" cx="0.561" cy="0.595" rx="0.561" ry="0.595"/>
      <ellipse id="Ellipse_273" data-name="Ellipse 273" cx="0.561" cy="0.595" rx="0.561" ry="0.595" transform="translate(2.827 0.836)"/>
      <ellipse id="Ellipse_274" data-name="Ellipse 274" cx="0.561" cy="0.595" rx="0.561" ry="0.595" transform="translate(6.311 2.014)"/>
      <ellipse id="Ellipse_275" data-name="Ellipse 275" cx="0.561" cy="0.595" rx="0.561" ry="0.595" transform="translate(12.574 3.446)"/>
      <ellipse id="Ellipse_276" data-name="Ellipse 276" cx="0.561" cy="0.595" rx="0.561" ry="0.595" transform="translate(19.172 4.294)"/>
      <ellipse id="Ellipse_277" data-name="Ellipse 277" cx="0.561" cy="0.595" rx="0.561" ry="0.595" transform="translate(26.008 4.636)"/>
      <ellipse id="Ellipse_278" data-name="Ellipse 278" cx="0.561" cy="0.595" rx="0.561" ry="0.595" transform="translate(35.814 3.205)"/>
      <ellipse id="Ellipse_279" data-name="Ellipse 279" cx="0.561" cy="0.595" rx="0.561" ry="0.595" transform="translate(32.569 4.041)"/>
      <ellipse id="Ellipse_280" data-name="Ellipse 280" cx="0.561" cy="0.595" rx="0.561" ry="0.595" transform="translate(41.887 2.014)"/>
      <ellipse id="Ellipse_281" data-name="Ellipse 281" cx="0.561" cy="0.595" rx="0.561" ry="0.595" transform="translate(38.964 2.61)"/>
      <ellipse id="Ellipse_282" data-name="Ellipse 282" cx="0.561" cy="0.595" rx="0.561" ry="0.595" transform="translate(45.096 0.836)"/>
      <ellipse id="Ellipse_283" data-name="Ellipse 283" cx="0.561" cy="0.595" rx="0.561" ry="0.595" transform="translate(9.508 2.863)"/>
      <ellipse id="Ellipse_284" data-name="Ellipse 284" cx="0.561" cy="0.595" rx="0.561" ry="0.595" transform="translate(15.975 4.041)"/>
      <ellipse id="Ellipse_285" data-name="Ellipse 285" cx="0.561" cy="0.595" rx="0.561" ry="0.595" transform="translate(22.978 4.636)"/>
      <ellipse id="Ellipse_286" data-name="Ellipse 286" cx="0.561" cy="0.595" rx="0.561" ry="0.595" transform="translate(29.348 4.636)"/>
    </g>
    <g id="Group_20" data-name="Group 20" transform="translate(862.17 436.775)" opacity="0.2">
      <ellipse id="Ellipse_287" data-name="Ellipse 287" cx="0.561" cy="0.595" rx="0.561" ry="0.595"/>
      <ellipse id="Ellipse_288" data-name="Ellipse 288" cx="0.561" cy="0.595" rx="0.561" ry="0.595" transform="translate(2.827 0.849)"/>
      <ellipse id="Ellipse_289" data-name="Ellipse 289" cx="0.561" cy="0.595" rx="0.561" ry="0.595" transform="translate(6.311 2.027)"/>
      <ellipse id="Ellipse_290" data-name="Ellipse 290" cx="0.561" cy="0.595" rx="0.561" ry="0.595" transform="translate(12.574 3.458)"/>
      <ellipse id="Ellipse_291" data-name="Ellipse 291" cx="0.561" cy="0.595" rx="0.561" ry="0.595" transform="translate(19.172 4.307)"/>
      <ellipse id="Ellipse_292" data-name="Ellipse 292" cx="0.561" cy="0.595" rx="0.561" ry="0.595" transform="translate(26.008 4.636)"/>
      <ellipse id="Ellipse_293" data-name="Ellipse 293" cx="0.561" cy="0.595" rx="0.561" ry="0.595" transform="translate(35.814 3.205)"/>
      <ellipse id="Ellipse_294" data-name="Ellipse 294" cx="0.561" cy="0.595" rx="0.561" ry="0.595" transform="translate(32.569 4.054)"/>
      <ellipse id="Ellipse_295" data-name="Ellipse 295" cx="0.561" cy="0.595" rx="0.561" ry="0.595" transform="translate(41.887 2.027)"/>
      <ellipse id="Ellipse_296" data-name="Ellipse 296" cx="0.561" cy="0.595" rx="0.561" ry="0.595" transform="translate(38.964 2.622)"/>
      <ellipse id="Ellipse_297" data-name="Ellipse 297" cx="0.561" cy="0.595" rx="0.561" ry="0.595" transform="translate(45.096 0.849)"/>
      <ellipse id="Ellipse_298" data-name="Ellipse 298" cx="0.561" cy="0.595" rx="0.561" ry="0.595" transform="translate(9.508 2.863)"/>
      <ellipse id="Ellipse_299" data-name="Ellipse 299" cx="0.561" cy="0.595" rx="0.561" ry="0.595" transform="translate(15.975 4.054)"/>
      <ellipse id="Ellipse_300" data-name="Ellipse 300" cx="0.561" cy="0.595" rx="0.561" ry="0.595" transform="translate(22.978 4.636)"/>
      <ellipse id="Ellipse_301" data-name="Ellipse 301" cx="0.561" cy="0.595" rx="0.561" ry="0.595" transform="translate(29.348 4.636)"/>
    </g>
    <g id="Group_21" data-name="Group 21" transform="translate(862.17 439.689)" opacity="0.2">
      <ellipse id="Ellipse_302" data-name="Ellipse 302" cx="0.561" cy="0.595" rx="0.561" ry="0.595" transform="translate(0 0)"/>
      <ellipse id="Ellipse_303" data-name="Ellipse 303" cx="0.561" cy="0.595" rx="0.561" ry="0.595" transform="translate(2.827 0.836)"/>
      <ellipse id="Ellipse_304" data-name="Ellipse 304" cx="0.561" cy="0.595" rx="0.561" ry="0.595" transform="translate(6.311 2.027)"/>
      <ellipse id="Ellipse_305" data-name="Ellipse 305" cx="0.561" cy="0.595" rx="0.561" ry="0.595" transform="translate(12.574 3.458)"/>
      <ellipse id="Ellipse_306" data-name="Ellipse 306" cx="0.561" cy="0.595" rx="0.561" ry="0.595" transform="translate(19.172 4.307)"/>
      <ellipse id="Ellipse_307" data-name="Ellipse 307" cx="0.561" cy="0.595" rx="0.561" ry="0.595" transform="translate(26.008 4.636)"/>
      <ellipse id="Ellipse_308" data-name="Ellipse 308" cx="0.561" cy="0.595" rx="0.561" ry="0.595" transform="translate(35.814 3.205)"/>
      <ellipse id="Ellipse_309" data-name="Ellipse 309" cx="0.561" cy="0.595" rx="0.561" ry="0.595" transform="translate(32.569 4.041)"/>
      <ellipse id="Ellipse_310" data-name="Ellipse 310" cx="0.561" cy="0.595" rx="0.561" ry="0.595" transform="translate(41.887 2.027)"/>
      <ellipse id="Ellipse_311" data-name="Ellipse 311" cx="0.561" cy="0.595" rx="0.561" ry="0.595" transform="translate(38.964 2.61)"/>
      <ellipse id="Ellipse_312" data-name="Ellipse 312" cx="0.561" cy="0.595" rx="0.561" ry="0.595" transform="translate(45.096 0.836)"/>
      <ellipse id="Ellipse_313" data-name="Ellipse 313" cx="0.561" cy="0.595" rx="0.561" ry="0.595" transform="translate(9.508 2.863)"/>
      <ellipse id="Ellipse_314" data-name="Ellipse 314" cx="0.561" cy="0.595" rx="0.561" ry="0.595" transform="translate(15.975 4.041)"/>
      <ellipse id="Ellipse_315" data-name="Ellipse 315" cx="0.561" cy="0.595" rx="0.561" ry="0.595" transform="translate(22.978 4.636)"/>
      <ellipse id="Ellipse_316" data-name="Ellipse 316" cx="0.561" cy="0.595" rx="0.561" ry="0.595" transform="translate(29.348 4.636)"/>
    </g>
    <g id="Group_22" data-name="Group 22" transform="translate(862.17 442.602)" opacity="0.2">
      <ellipse id="Ellipse_317" data-name="Ellipse 317" cx="0.561" cy="0.595" rx="0.561" ry="0.595"/>
      <ellipse id="Ellipse_318" data-name="Ellipse 318" cx="0.561" cy="0.595" rx="0.561" ry="0.595" transform="translate(2.827 0.836)"/>
      <ellipse id="Ellipse_319" data-name="Ellipse 319" cx="0.561" cy="0.595" rx="0.561" ry="0.595" transform="translate(6.311 2.014)"/>
      <ellipse id="Ellipse_320" data-name="Ellipse 320" cx="0.561" cy="0.595" rx="0.561" ry="0.595" transform="translate(12.574 3.446)"/>
      <ellipse id="Ellipse_321" data-name="Ellipse 321" cx="0.561" cy="0.595" rx="0.561" ry="0.595" transform="translate(19.172 4.294)"/>
      <ellipse id="Ellipse_322" data-name="Ellipse 322" cx="0.561" cy="0.595" rx="0.561" ry="0.595" transform="translate(26.008 4.624)"/>
      <ellipse id="Ellipse_323" data-name="Ellipse 323" cx="0.561" cy="0.595" rx="0.561" ry="0.595" transform="translate(35.814 3.192)"/>
      <ellipse id="Ellipse_324" data-name="Ellipse 324" cx="0.561" cy="0.595" rx="0.561" ry="0.595" transform="translate(32.569 4.041)"/>
      <ellipse id="Ellipse_325" data-name="Ellipse 325" cx="0.561" cy="0.595" rx="0.561" ry="0.595" transform="translate(41.887 2.014)"/>
      <ellipse id="Ellipse_326" data-name="Ellipse 326" cx="0.561" cy="0.595" rx="0.561" ry="0.595" transform="translate(38.964 2.61)"/>
      <ellipse id="Ellipse_327" data-name="Ellipse 327" cx="0.561" cy="0.595" rx="0.561" ry="0.595" transform="translate(45.096 0.836)"/>
      <ellipse id="Ellipse_328" data-name="Ellipse 328" cx="0.561" cy="0.595" rx="0.561" ry="0.595" transform="translate(9.508 2.85)"/>
      <ellipse id="Ellipse_329" data-name="Ellipse 329" cx="0.561" cy="0.595" rx="0.561" ry="0.595" transform="translate(15.975 4.041)"/>
      <ellipse id="Ellipse_330" data-name="Ellipse 330" cx="0.561" cy="0.595" rx="0.561" ry="0.595" transform="translate(22.978 4.624)"/>
      <ellipse id="Ellipse_331" data-name="Ellipse 331" cx="0.561" cy="0.595" rx="0.561" ry="0.595" transform="translate(29.348 4.624)"/>
    </g>
    <g id="Group_23" data-name="Group 23" transform="translate(862.17 445.503)" opacity="0.2">
      <ellipse id="Ellipse_332" data-name="Ellipse 332" cx="0.561" cy="0.595" rx="0.561" ry="0.595"/>
      <ellipse id="Ellipse_333" data-name="Ellipse 333" cx="0.561" cy="0.595" rx="0.561" ry="0.595" transform="translate(2.827 0.836)"/>
      <ellipse id="Ellipse_334" data-name="Ellipse 334" cx="0.561" cy="0.595" rx="0.561" ry="0.595" transform="translate(6.311 2.027)"/>
      <ellipse id="Ellipse_335" data-name="Ellipse 335" cx="0.561" cy="0.595" rx="0.561" ry="0.595" transform="translate(12.574 3.458)"/>
      <ellipse id="Ellipse_336" data-name="Ellipse 336" cx="0.561" cy="0.595" rx="0.561" ry="0.595" transform="translate(19.172 4.307)"/>
      <ellipse id="Ellipse_337" data-name="Ellipse 337" cx="0.561" cy="0.595" rx="0.561" ry="0.595" transform="translate(26.008 4.636)"/>
      <ellipse id="Ellipse_338" data-name="Ellipse 338" cx="0.561" cy="0.595" rx="0.561" ry="0.595" transform="translate(35.814 3.205)"/>
      <ellipse id="Ellipse_339" data-name="Ellipse 339" cx="0.561" cy="0.595" rx="0.561" ry="0.595" transform="translate(32.569 4.041)"/>
      <ellipse id="Ellipse_340" data-name="Ellipse 340" cx="0.561" cy="0.595" rx="0.561" ry="0.595" transform="translate(41.887 2.027)"/>
      <ellipse id="Ellipse_341" data-name="Ellipse 341" cx="0.561" cy="0.595" rx="0.561" ry="0.595" transform="translate(38.964 2.61)"/>
      <ellipse id="Ellipse_342" data-name="Ellipse 342" cx="0.561" cy="0.595" rx="0.561" ry="0.595" transform="translate(45.096 0.836)"/>
      <ellipse id="Ellipse_343" data-name="Ellipse 343" cx="0.561" cy="0.595" rx="0.561" ry="0.595" transform="translate(9.508 2.863)"/>
      <ellipse id="Ellipse_344" data-name="Ellipse 344" cx="0.561" cy="0.595" rx="0.561" ry="0.595" transform="translate(15.975 4.041)"/>
      <ellipse id="Ellipse_345" data-name="Ellipse 345" cx="0.561" cy="0.595" rx="0.561" ry="0.595" transform="translate(22.978 4.636)"/>
      <ellipse id="Ellipse_346" data-name="Ellipse 346" cx="0.561" cy="0.595" rx="0.561" ry="0.595" transform="translate(29.348 4.636)"/>
    </g>
    <g id="Group_24" data-name="Group 24" transform="translate(862.17 448.417)" opacity="0.2">
      <ellipse id="Ellipse_347" data-name="Ellipse 347" cx="0.561" cy="0.595" rx="0.561" ry="0.595"/>
      <ellipse id="Ellipse_348" data-name="Ellipse 348" cx="0.561" cy="0.595" rx="0.561" ry="0.595" transform="translate(2.827 0.836)"/>
      <ellipse id="Ellipse_349" data-name="Ellipse 349" cx="0.561" cy="0.595" rx="0.561" ry="0.595" transform="translate(6.311 2.014)"/>
      <ellipse id="Ellipse_350" data-name="Ellipse 350" cx="0.561" cy="0.595" rx="0.561" ry="0.595" transform="translate(12.574 3.446)"/>
      <ellipse id="Ellipse_351" data-name="Ellipse 351" cx="0.561" cy="0.595" rx="0.561" ry="0.595" transform="translate(19.172 4.294)"/>
      <ellipse id="Ellipse_352" data-name="Ellipse 352" cx="0.561" cy="0.595" rx="0.561" ry="0.595" transform="translate(26.008 4.624)"/>
      <ellipse id="Ellipse_353" data-name="Ellipse 353" cx="0.561" cy="0.595" rx="0.561" ry="0.595" transform="translate(35.814 3.192)"/>
      <ellipse id="Ellipse_354" data-name="Ellipse 354" cx="0.561" cy="0.595" rx="0.561" ry="0.595" transform="translate(32.569 4.041)"/>
      <ellipse id="Ellipse_355" data-name="Ellipse 355" cx="0.561" cy="0.595" rx="0.561" ry="0.595" transform="translate(41.887 2.014)"/>
      <ellipse id="Ellipse_356" data-name="Ellipse 356" cx="0.561" cy="0.595" rx="0.561" ry="0.595" transform="translate(38.964 2.61)"/>
      <ellipse id="Ellipse_357" data-name="Ellipse 357" cx="0.561" cy="0.595" rx="0.561" ry="0.595" transform="translate(45.096 0.836)"/>
      <ellipse id="Ellipse_358" data-name="Ellipse 358" cx="0.561" cy="0.595" rx="0.561" ry="0.595" transform="translate(9.508 2.863)"/>
      <ellipse id="Ellipse_359" data-name="Ellipse 359" cx="0.561" cy="0.595" rx="0.561" ry="0.595" transform="translate(15.975 4.041)"/>
      <ellipse id="Ellipse_360" data-name="Ellipse 360" cx="0.561" cy="0.595" rx="0.561" ry="0.595" transform="translate(22.978 4.624)"/>
      <ellipse id="Ellipse_361" data-name="Ellipse 361" cx="0.561" cy="0.595" rx="0.561" ry="0.595" transform="translate(29.348 4.624)"/>
    </g>
    <path id="Path_45" data-name="Path 45" d="M985.5,251.131s16.333-6.486,21.761,6.879l1.527.418,3.424.937c8.649-13.719,31.424,0,31.424,0l31.973,15.011-1.193,2.116-32.044-11.87s-4.235,13.935-9.795,17.292-14.591-1.862-14.591-1.862c-5.631-2.394-6.061-12.9-5.965-17.963l-4.844-1.026c-.334,5.067-2.1,14.834-10.737,15.936-11.751,1.495-12.574-9.514-12.574-9.514S983.564,253.475,985.5,251.131Z" transform="translate(-34.269 1.466)" fill="#3f3d56"/>
    <path id="Path_46" data-name="Path 46" d="M996.406,263.879c-.537,1.267-1.288,3.053-.2,3.876a1.914,1.914,0,0,0,1.622.2c3.448-.8,5.273-4.7,6.717-8.12s3.579-7.246,7.158-7.6c4.14-.367,8.47,4.421,11.93,1.913,1.05-.76,1.682-2.1,2.851-2.66a4.386,4.386,0,0,1,2.648-.177c8,1.506,14.145,8.348,15.187,16.9.179,1.773.525,4.079,2.183,4.358a6.663,6.663,0,0,0,1.849-.228c3.126-.38,5.034,3.446,6.037,6.613,1.36,4.32,2.732,8.867,1.945,13.365-.62,3.534-2.577,6.777-2.684,10.375-.1,2.964,1.086,5.789,2.243,8.487s3.042,5.865,5.81,5.485c2.267-.317,3.519-2.876,4.617-5.067s3.054-4.446,5.261-3.8c.978.3,2,1.191,2.9.646a2.248,2.248,0,0,0,.847-1.546c1.074-4.991-.465-10.59,1.813-15.087,1.754-3.458,5.321-5.333,8.22-7.791a25.42,25.42,0,0,0,8.733-17.159,25.988,25.988,0,0,0-5.56-18.59c-3.09-3.8-7.552-7.259-7.8-12.313-.191-3.8,2.267-7.4,2.291-11.249s-2.243-7.107-4.772-9.666a30.022,30.022,0,0,0-28.131-7.867c-2.6.659-5.213,1.7-7.874,1.343-3.078-.405-5.655-2.534-8.423-4.079-9.091-4.877-21.391-1.33-26.891,7.765-3.185,5.257-4.426,12.123-9.174,15.809-3.126,2.42-7.588,3.319-9.318,6.993-1.038,2.2-.74,4.814-.429,7.259a17.361,17.361,0,0,0,5.106,10.375C995.833,255.911,998.315,259.23,996.406,263.879Z" transform="translate(-33.522 -11.156)" fill="#b76b43"/>
    <g id="Group_25" data-name="Group 25" transform="translate(954.014 215.075)" opacity="0.1">
      <path id="Path_47" data-name="Path 47" d="M1066.81,224.144a19.8,19.8,0,0,0,.716-2.964,18.448,18.448,0,0,0-.716,2.964Z" transform="translate(-972.269 -221.18)"/>
      <path id="Path_48" data-name="Path 48" d="M997.079,254.078a11.071,11.071,0,0,1,.668-1.9c1.933-4.649-.549-7.968-3.436-11.1a17.361,17.361,0,0,1-5.106-10.375,27.87,27.87,0,0,1-.286-3.306,7.369,7.369,0,0,0-.632,1.039c-1.038,2.2-.74,4.814-.429,7.259a17.361,17.361,0,0,0,5.106,10.375C995.17,248.429,997.139,250.962,997.079,254.078Z" transform="translate(-987.565 -219.521)"/>
      <path id="Path_49" data-name="Path 49" d="M1062.118,283.037c-2.207-.684-4.164,1.621-5.249,3.8s-2.386,4.7-4.629,5.067c-2.756.38-4.653-2.787-5.81-5.485s-2.386-5.523-2.243-8.487a3.884,3.884,0,0,1,.1-1.051,20.514,20.514,0,0,0-1.432,6.043c-.1,2.964,1.086,5.789,2.243,8.487s3.042,5.865,5.81,5.485c2.267-.317,3.519-2.876,4.617-5.067s3.054-4.446,5.261-3.8c.978.3,2,1.191,2.9.646a2.247,2.247,0,0,0,.847-1.545,20.12,20.12,0,0,0,.394-3.395C1064.087,284.139,1063.108,283.366,1062.118,283.037Z" transform="translate(-976.895 -206.32)"/>
      <path id="Path_50" data-name="Path 50" d="M1072.1,265.145c-2.887,2.458-6.454,4.332-8.22,7.791a13.2,13.2,0,0,0-1.193,4.826c1.789-3.357,5.273-5.206,8.124-7.6a25.679,25.679,0,0,0,8.47-15.2A25.266,25.266,0,0,1,1072.1,265.145Z" transform="translate(-973.065 -212.168)"/>
      <path id="Path_51" data-name="Path 51" d="M1055.01,282.508a30.181,30.181,0,0,0,1.277-4.4c.787-4.484-.6-9.045-1.957-13.365-.99-3.167-2.911-6.993-5.965-6.613a6.7,6.7,0,0,1-1.861.228c-1.658-.279-2-2.534-2.171-4.358-1.046-8.549-7.194-15.389-15.187-16.9a4.419,4.419,0,0,0-2.66.177c-1.193.557-1.8,1.9-2.839,2.66-3.424,2.534-7.755-2.28-11.93-1.913-3.508.3-5.667,4.13-7.158,7.6s-3.269,7.322-6.717,8.12a1.914,1.914,0,0,1-1.622-.2,1.393,1.393,0,0,1-.537-1.064,8.5,8.5,0,0,1-.609,2.179c-.537,1.267-1.288,3.053-.2,3.876a1.914,1.914,0,0,0,1.622.2c3.448-.8,5.273-4.7,6.717-8.12s3.579-7.246,7.158-7.6c4.14-.367,8.47,4.421,11.93,1.913,1.05-.76,1.682-2.1,2.851-2.66a4.385,4.385,0,0,1,2.649-.177c8,1.506,14.144,8.348,15.187,16.9.179,1.774.525,4.079,2.183,4.358a6.664,6.664,0,0,0,1.849-.228c3.126-.38,5.034,3.446,6.037,6.613C1054.294,273.869,1055.583,278.214,1055.01,282.508Z" transform="translate(-986.262 -216.965)"/>
    </g>
    <g id="Group_34" data-name="Group 34" transform="translate(-227.432 219.018)">
      <rect id="Rectangle_31" data-name="Rectangle 31" width="169.148" height="111.654" rx="26.835" transform="translate(1055.642 140.927)" fill="#535461"/>
      <circle id="Ellipse_369" data-name="Ellipse 369" cx="13.471" cy="13.471" r="13.471" transform="translate(1126.745 183.282)" fill="#fff"/>
    </g>
    <path id="Path_38" data-name="Path 38" d="M1083.672,391.952s-17.12,5.523-24.851,5.523-37.938-.177-37.938-.177-78.918-28-55.237,10.337,61.106,16.937,61.106,16.937,3.03.709,6.717,1.609,75.053.177,77.4-2.85S1083.672,391.952,1083.672,391.952Z" transform="translate(-38.637 38.249)" fill="#fbbebe"/>
  </g>
</svg>
